<svg width="30" height="23" viewBox="0 0 30 23" fill="none" xmlns="http://www.w3.org/2000/svg">
<path d="M28.5 0.250724C28.3722 0.237714 28.2434 0.237714 28.1156 0.250724H1.86563C1.69739 0.253286 1.53026 0.278211 1.36875 0.324828L14.9156 13.6543L28.5 0.250724Z" fill="white"/>
<path d="M29.8875 1.53828L16.2375 14.9696C15.8862 15.3147 15.411 15.5084 14.9156 15.5084C14.4203 15.5084 13.9451 15.3147 13.5938 14.9696L0.0656251 1.64018C0.024037 1.7912 0.00198627 1.94682 0 2.10333V20.6293C0 21.1207 0.197544 21.5919 0.549175 21.9393C0.900806 22.2868 1.37772 22.4819 1.875 22.4819H28.125C28.6223 22.4819 29.0992 22.2868 29.4508 21.9393C29.8025 21.5919 30 21.1207 30 20.6293V2.10333C29.9925 1.91034 29.9546 1.71968 29.8875 1.53828ZM3.15938 20.6293H1.85625V19.3047L8.67188 12.6261L9.99375 13.9322L3.15938 20.6293ZM28.1063 20.6293H26.7937L19.9594 13.9322L21.2812 12.6261L28.0969 19.3047L28.1063 20.6293Z" fill="white"/>
</svg>
